<mxfile host="Electron" modified="2024-05-20T13:23:19.216Z" agent="Mozilla/5.0 (Macintosh; Intel Mac OS X 10_15_7) AppleWebKit/537.36 (KHTML, like Gecko) draw.io/24.4.0 Chrome/120.0.6099.109 Electron/28.1.0 Safari/537.36" etag="anWLek60-o3jzTcRCx4m" version="24.4.0" type="device">
  <diagram name="Page-1" id="YomcY0kIP7FUT1hbP3uY">
    <mxGraphModel dx="2133" dy="929" grid="1" gridSize="10" guides="1" tooltips="1" connect="1" arrows="1" fold="1" page="1" pageScale="1" pageWidth="850" pageHeight="1100" math="0" shadow="0">
      <root>
        <mxCell id="0" />
        <mxCell id="1" parent="0" />
        <mxCell id="QGLfhy5vxlVQSryEOP55-1" value="" style="rounded=0;whiteSpace=wrap;html=1;" parent="1" vertex="1">
          <mxGeometry x="-40" y="80" width="900" height="610" as="geometry" />
        </mxCell>
        <mxCell id="QGLfhy5vxlVQSryEOP55-2" value="" style="rounded=0;whiteSpace=wrap;html=1;rotation=90;fillColor=#fff2cc;strokeColor=#d6b656;" parent="1" vertex="1">
          <mxGeometry x="-130" y="285" width="510" height="200" as="geometry" />
        </mxCell>
        <mxCell id="QGLfhy5vxlVQSryEOP55-3" value="" style="rounded=0;whiteSpace=wrap;html=1;rotation=90;fillColor=#dae8fc;strokeColor=#6c8ebf;" parent="1" vertex="1">
          <mxGeometry x="170" y="285" width="510" height="200" as="geometry" />
        </mxCell>
        <mxCell id="QGLfhy5vxlVQSryEOP55-4" value="" style="rounded=0;whiteSpace=wrap;html=1;rotation=90;fillColor=#dae8fc;strokeColor=#6c8ebf;" parent="1" vertex="1">
          <mxGeometry x="440" y="285" width="510" height="200" as="geometry" />
        </mxCell>
        <mxCell id="QGLfhy5vxlVQSryEOP55-5" value="node-1&lt;br&gt;(Master Node)" style="text;html=1;align=center;verticalAlign=middle;whiteSpace=wrap;rounded=0;" parent="1" vertex="1">
          <mxGeometry x="82.5" y="600" width="85" height="30" as="geometry" />
        </mxCell>
        <mxCell id="QGLfhy5vxlVQSryEOP55-6" value="node-2&lt;br&gt;(Worker Node)" style="text;html=1;align=center;verticalAlign=middle;whiteSpace=wrap;rounded=0;" parent="1" vertex="1">
          <mxGeometry x="383" y="600" width="85" height="30" as="geometry" />
        </mxCell>
        <mxCell id="QGLfhy5vxlVQSryEOP55-7" value="node-3&lt;br&gt;(Worker Node)" style="text;html=1;align=center;verticalAlign=middle;whiteSpace=wrap;rounded=0;" parent="1" vertex="1">
          <mxGeometry x="652.5" y="600" width="85" height="30" as="geometry" />
        </mxCell>
        <mxCell id="QGLfhy5vxlVQSryEOP55-8" value="Controller&lt;div&gt;Manager&lt;/div&gt;" style="aspect=fixed;sketch=0;html=1;dashed=0;whitespace=wrap;verticalLabelPosition=bottom;verticalAlign=top;fillColor=#2875E2;strokeColor=#ffffff;points=[[0.005,0.63,0],[0.1,0.2,0],[0.9,0.2,0],[0.5,0,0],[0.995,0.63,0],[0.72,0.99,0],[0.5,1,0],[0.28,0.99,0]];shape=mxgraph.kubernetes.icon2;kubernetesLabel=1;prIcon=c_m" parent="1" vertex="1">
          <mxGeometry x="32.5" y="460" width="50" height="48" as="geometry" />
        </mxCell>
        <mxCell id="QGLfhy5vxlVQSryEOP55-9" value="etcd" style="aspect=fixed;sketch=0;html=1;dashed=0;whitespace=wrap;verticalLabelPosition=bottom;verticalAlign=top;fillColor=#2875E2;strokeColor=#ffffff;points=[[0.005,0.63,0],[0.1,0.2,0],[0.9,0.2,0],[0.5,0,0],[0.995,0.63,0],[0.72,0.99,0],[0.5,1,0],[0.28,0.99,0]];shape=mxgraph.kubernetes.icon2;kubernetesLabel=1;prIcon=etcd" parent="1" vertex="1">
          <mxGeometry x="150" y="520" width="50" height="48" as="geometry" />
        </mxCell>
        <mxCell id="QGLfhy5vxlVQSryEOP55-10" value="Scheduler" style="aspect=fixed;sketch=0;html=1;dashed=0;whitespace=wrap;verticalLabelPosition=bottom;verticalAlign=top;fillColor=#2875E2;strokeColor=#ffffff;points=[[0.005,0.63,0],[0.1,0.2,0],[0.9,0.2,0],[0.5,0,0],[0.995,0.63,0],[0.72,0.99,0],[0.5,1,0],[0.28,0.99,0]];shape=mxgraph.kubernetes.icon2;kubernetesLabel=1;prIcon=sched" parent="1" vertex="1">
          <mxGeometry x="167.5" y="170" width="50" height="48" as="geometry" />
        </mxCell>
        <mxCell id="oo58XqtZ_VvP2QP6S_Y6-11" style="edgeStyle=orthogonalEdgeStyle;rounded=0;orthogonalLoop=1;jettySize=auto;html=1;exitX=0.5;exitY=1;exitDx=0;exitDy=0;exitPerimeter=0;" edge="1" parent="1" source="QGLfhy5vxlVQSryEOP55-11" target="QGLfhy5vxlVQSryEOP55-9">
          <mxGeometry relative="1" as="geometry" />
        </mxCell>
        <mxCell id="QGLfhy5vxlVQSryEOP55-11" value="API Server" style="aspect=fixed;sketch=0;html=1;dashed=0;whitespace=wrap;verticalLabelPosition=bottom;verticalAlign=top;fillColor=#2875E2;strokeColor=#ffffff;points=[[0.005,0.63,0],[0.1,0.2,0],[0.9,0.2,0],[0.5,0,0],[0.995,0.63,0],[0.72,0.99,0],[0.5,1,0],[0.28,0.99,0]];shape=mxgraph.kubernetes.icon2;kubernetesLabel=1;prIcon=api" parent="1" vertex="1">
          <mxGeometry x="117.5" y="350" width="50" height="48" as="geometry" />
        </mxCell>
        <mxCell id="QGLfhy5vxlVQSryEOP55-12" value="Cloud Controller&lt;div&gt;Manager&lt;/div&gt;" style="aspect=fixed;sketch=0;html=1;dashed=0;whitespace=wrap;verticalLabelPosition=bottom;verticalAlign=top;fillColor=#2875E2;strokeColor=#ffffff;points=[[0.005,0.63,0],[0.1,0.2,0],[0.9,0.2,0],[0.5,0,0],[0.995,0.63,0],[0.72,0.99,0],[0.5,1,0],[0.28,0.99,0]];shape=mxgraph.kubernetes.icon2;kubernetesLabel=1;prIcon=c_c_m" parent="1" vertex="1">
          <mxGeometry x="50" y="200" width="50" height="48" as="geometry" />
        </mxCell>
        <mxCell id="QGLfhy5vxlVQSryEOP55-34" style="edgeStyle=orthogonalEdgeStyle;rounded=0;orthogonalLoop=1;jettySize=auto;html=1;exitX=0.1;exitY=0.2;exitDx=0;exitDy=0;exitPerimeter=0;entryX=1;entryY=0.5;entryDx=0;entryDy=0;" parent="1" source="QGLfhy5vxlVQSryEOP55-13" target="QGLfhy5vxlVQSryEOP55-15" edge="1">
          <mxGeometry relative="1" as="geometry" />
        </mxCell>
        <mxCell id="QGLfhy5vxlVQSryEOP55-13" value="" style="aspect=fixed;sketch=0;html=1;dashed=0;whitespace=wrap;verticalLabelPosition=bottom;verticalAlign=top;fillColor=#2875E2;strokeColor=#ffffff;points=[[0.005,0.63,0],[0.1,0.2,0],[0.9,0.2,0],[0.5,0,0],[0.995,0.63,0],[0.72,0.99,0],[0.5,1,0],[0.28,0.99,0]];shape=mxgraph.kubernetes.icon2;kubernetesLabel=1;prIcon=kubelet" parent="1" vertex="1">
          <mxGeometry x="468" y="526" width="50" height="48" as="geometry" />
        </mxCell>
        <mxCell id="QGLfhy5vxlVQSryEOP55-58" style="edgeStyle=orthogonalEdgeStyle;rounded=0;orthogonalLoop=1;jettySize=auto;html=1;entryX=1;entryY=0.5;entryDx=0;entryDy=0;" parent="1" edge="1">
          <mxGeometry relative="1" as="geometry">
            <mxPoint x="365" y="532.3" as="sourcePoint" />
            <mxPoint x="348.70000000000005" y="429.99999999999994" as="targetPoint" />
            <Array as="points">
              <mxPoint x="365" y="456.3" />
              <mxPoint x="349" y="456.3" />
            </Array>
          </mxGeometry>
        </mxCell>
        <mxCell id="oo58XqtZ_VvP2QP6S_Y6-12" value="configures" style="edgeLabel;html=1;align=center;verticalAlign=middle;resizable=0;points=[];" vertex="1" connectable="0" parent="QGLfhy5vxlVQSryEOP55-58">
          <mxGeometry x="0.3742" relative="1" as="geometry">
            <mxPoint as="offset" />
          </mxGeometry>
        </mxCell>
        <mxCell id="QGLfhy5vxlVQSryEOP55-14" value="" style="aspect=fixed;sketch=0;html=1;dashed=0;whitespace=wrap;verticalLabelPosition=bottom;verticalAlign=top;fillColor=#2875E2;strokeColor=#ffffff;points=[[0.005,0.63,0],[0.1,0.2,0],[0.9,0.2,0],[0.5,0,0],[0.995,0.63,0],[0.72,0.99,0],[0.5,1,0],[0.28,0.99,0]];shape=mxgraph.kubernetes.icon2;kubernetesLabel=1;prIcon=k_proxy" parent="1" vertex="1">
          <mxGeometry x="340" y="526" width="50" height="48" as="geometry" />
        </mxCell>
        <mxCell id="QGLfhy5vxlVQSryEOP55-15" value="container&lt;div&gt;runtime&lt;/div&gt;" style="editableCssRules=.*;html=1;shape=image;verticalLabelPosition=bottom;labelBackgroundColor=#ffffff;verticalAlign=top;aspect=fixed;imageAspect=0;image=data:image/svg+xml,PHN2ZyB4bWxucz0iaHR0cDovL3d3dy53My5vcmcvMjAwMC9zdmciIHhtbG5zOnY9Imh0dHBzOi8vdmVjdGEuaW8vbmFubyIgd2lkdGg9IjE0LjAwMDI5OTQ1MzczNTM1MiIgaGVpZ2h0PSIxNS45OTI5MjI3ODI4OTc5NSIgdmlld0JveD0iLTAuMDAwMTQ5NjA4NDAwNTMzOTA3MTIgLTAuMDAwNDYxNzIyMDgzODU1NDIwMzUgMTQuMDAwMjk5NDUzNzM1MzUyIDE1Ljk5MjkyMjc4Mjg5Nzk1Ij4mI3hhOwk8c3R5bGUgdHlwZT0idGV4dC9jc3MiPiYjeGE7CS5zdDB7ZmlsbDojNDI4NWY0O30mI3hhOwk8L3N0eWxlPiYjeGE7CTxwYXRoIGNsYXNzPSJzdDAiIGQ9Ik0xMy42NyAzLjczNkw3LjM2LjA5NmEuNzIuNzIgMCAwIDAtLjcyIDBMLjMzIDMuNzM2YS43Mi43MiAwIDAgMC0uMzMuNjJ2Ny4yOGEuNzIuNzIgMCAwIDAgLjM2LjYybDYuMjggMy42NGEuNzIuNzIgMCAwIDAgLjcyIDBsNi4zMS0zLjY0YS43Mi43MiAwIDAgMCAuMzMtLjYydi03LjI4YS43Mi43MiAwIDAgMC0uMzMtLjYyem0tLjg3IDcuMmwtMi4yLTEuMjd2LTMuMzRsLTMuMjUgMS44N3YzLjhsMi45LTEuNjcgMi4yIDEuMjctNS40NSAzLjEtNS40NS0zLjE1IDIuMi0xLjI3IDIuOSAxLjcydi0zLjhMMy40IDYuMzI2djMuMzRsLTIuMiAxLjI3di02LjI5bDUuNDUtMy4xNHYyLjQ5bC0yLjkgMS43Mkw3IDcuNTg2bDMuMjUtMS44OC0yLjktMS43MXYtMi40OWw1LjQ1IDMuMTR6Ii8+JiN4YTs8L3N2Zz4=;" parent="1" vertex="1">
          <mxGeometry x="403.95000000000005" y="494" width="28.000000000000004" height="32" as="geometry" />
        </mxCell>
        <mxCell id="QGLfhy5vxlVQSryEOP55-35" style="edgeStyle=orthogonalEdgeStyle;rounded=0;orthogonalLoop=1;jettySize=auto;html=1;exitX=0.1;exitY=0.2;exitDx=0;exitDy=0;exitPerimeter=0;entryX=1;entryY=0.5;entryDx=0;entryDy=0;" parent="1" source="QGLfhy5vxlVQSryEOP55-19" target="QGLfhy5vxlVQSryEOP55-21" edge="1">
          <mxGeometry relative="1" as="geometry" />
        </mxCell>
        <mxCell id="QGLfhy5vxlVQSryEOP55-49" style="edgeStyle=orthogonalEdgeStyle;rounded=0;orthogonalLoop=1;jettySize=auto;html=1;" parent="1" source="QGLfhy5vxlVQSryEOP55-19" edge="1">
          <mxGeometry relative="1" as="geometry">
            <mxPoint x="170" y="380" as="targetPoint" />
            <Array as="points">
              <mxPoint x="759" y="480" />
              <mxPoint x="250" y="480" />
              <mxPoint x="250" y="380" />
            </Array>
          </mxGeometry>
        </mxCell>
        <mxCell id="QGLfhy5vxlVQSryEOP55-19" value="" style="aspect=fixed;sketch=0;html=1;dashed=0;whitespace=wrap;verticalLabelPosition=bottom;verticalAlign=top;fillColor=#2875E2;strokeColor=#ffffff;points=[[0.005,0.63,0],[0.1,0.2,0],[0.9,0.2,0],[0.5,0,0],[0.995,0.63,0],[0.72,0.99,0],[0.5,1,0],[0.28,0.99,0]];shape=mxgraph.kubernetes.icon2;kubernetesLabel=1;prIcon=kubelet" parent="1" vertex="1">
          <mxGeometry x="734" y="526" width="50" height="48" as="geometry" />
        </mxCell>
        <mxCell id="QGLfhy5vxlVQSryEOP55-62" style="edgeStyle=orthogonalEdgeStyle;rounded=0;orthogonalLoop=1;jettySize=auto;html=1;entryX=1;entryY=0.5;entryDx=0;entryDy=0;" parent="1" source="QGLfhy5vxlVQSryEOP55-20" target="QGLfhy5vxlVQSryEOP55-51" edge="1">
          <mxGeometry relative="1" as="geometry">
            <Array as="points">
              <mxPoint x="631" y="450" />
              <mxPoint x="621" y="450" />
            </Array>
          </mxGeometry>
        </mxCell>
        <mxCell id="oo58XqtZ_VvP2QP6S_Y6-13" value="configures" style="edgeLabel;html=1;align=center;verticalAlign=middle;resizable=0;points=[];" vertex="1" connectable="0" parent="QGLfhy5vxlVQSryEOP55-62">
          <mxGeometry x="0.4394" relative="1" as="geometry">
            <mxPoint as="offset" />
          </mxGeometry>
        </mxCell>
        <mxCell id="QGLfhy5vxlVQSryEOP55-20" value="" style="aspect=fixed;sketch=0;html=1;dashed=0;whitespace=wrap;verticalLabelPosition=bottom;verticalAlign=top;fillColor=#2875E2;strokeColor=#ffffff;points=[[0.005,0.63,0],[0.1,0.2,0],[0.9,0.2,0],[0.5,0,0],[0.995,0.63,0],[0.72,0.99,0],[0.5,1,0],[0.28,0.99,0]];shape=mxgraph.kubernetes.icon2;kubernetesLabel=1;prIcon=k_proxy" parent="1" vertex="1">
          <mxGeometry x="606" y="526" width="50" height="48" as="geometry" />
        </mxCell>
        <mxCell id="QGLfhy5vxlVQSryEOP55-21" value="container&lt;div&gt;runtime&lt;/div&gt;" style="editableCssRules=.*;html=1;shape=image;verticalLabelPosition=bottom;labelBackgroundColor=#ffffff;verticalAlign=top;aspect=fixed;imageAspect=0;image=data:image/svg+xml,PHN2ZyB4bWxucz0iaHR0cDovL3d3dy53My5vcmcvMjAwMC9zdmciIHhtbG5zOnY9Imh0dHBzOi8vdmVjdGEuaW8vbmFubyIgd2lkdGg9IjE0LjAwMDI5OTQ1MzczNTM1MiIgaGVpZ2h0PSIxNS45OTI5MjI3ODI4OTc5NSIgdmlld0JveD0iLTAuMDAwMTQ5NjA4NDAwNTMzOTA3MTIgLTAuMDAwNDYxNzIyMDgzODU1NDIwMzUgMTQuMDAwMjk5NDUzNzM1MzUyIDE1Ljk5MjkyMjc4Mjg5Nzk1Ij4mI3hhOwk8c3R5bGUgdHlwZT0idGV4dC9jc3MiPiYjeGE7CS5zdDB7ZmlsbDojNDI4NWY0O30mI3hhOwk8L3N0eWxlPiYjeGE7CTxwYXRoIGNsYXNzPSJzdDAiIGQ9Ik0xMy42NyAzLjczNkw3LjM2LjA5NmEuNzIuNzIgMCAwIDAtLjcyIDBMLjMzIDMuNzM2YS43Mi43MiAwIDAgMC0uMzMuNjJ2Ny4yOGEuNzIuNzIgMCAwIDAgLjM2LjYybDYuMjggMy42NGEuNzIuNzIgMCAwIDAgLjcyIDBsNi4zMS0zLjY0YS43Mi43MiAwIDAgMCAuMzMtLjYydi03LjI4YS43Mi43MiAwIDAgMC0uMzMtLjYyem0tLjg3IDcuMmwtMi4yLTEuMjd2LTMuMzRsLTMuMjUgMS44N3YzLjhsMi45LTEuNjcgMi4yIDEuMjctNS40NSAzLjEtNS40NS0zLjE1IDIuMi0xLjI3IDIuOSAxLjcydi0zLjhMMy40IDYuMzI2djMuMzRsLTIuMiAxLjI3di02LjI5bDUuNDUtMy4xNHYyLjQ5bC0yLjkgMS43Mkw3IDcuNTg2bDMuMjUtMS44OC0yLjktMS43MXYtMi40OWw1LjQ1IDMuMTR6Ii8+JiN4YTs8L3N2Zz4=;" parent="1" vertex="1">
          <mxGeometry x="669.95" y="494" width="28.000000000000004" height="32" as="geometry" />
        </mxCell>
        <mxCell id="QGLfhy5vxlVQSryEOP55-22" value="" style="rounded=0;whiteSpace=wrap;html=1;" parent="1" vertex="1">
          <mxGeometry x="398" y="140" width="120" height="60" as="geometry" />
        </mxCell>
        <mxCell id="QGLfhy5vxlVQSryEOP55-23" value="" style="rounded=0;whiteSpace=wrap;html=1;" parent="1" vertex="1">
          <mxGeometry x="398" y="260" width="120" height="60" as="geometry" />
        </mxCell>
        <mxCell id="QGLfhy5vxlVQSryEOP55-24" value="" style="rounded=0;whiteSpace=wrap;html=1;" parent="1" vertex="1">
          <mxGeometry x="398" y="370" width="120" height="60" as="geometry" />
        </mxCell>
        <mxCell id="QGLfhy5vxlVQSryEOP55-25" value="" style="rounded=0;whiteSpace=wrap;html=1;" parent="1" vertex="1">
          <mxGeometry x="664" y="145" width="120" height="60" as="geometry" />
        </mxCell>
        <mxCell id="QGLfhy5vxlVQSryEOP55-26" value="" style="rounded=0;whiteSpace=wrap;html=1;" parent="1" vertex="1">
          <mxGeometry x="664" y="265" width="120" height="60" as="geometry" />
        </mxCell>
        <mxCell id="QGLfhy5vxlVQSryEOP55-27" value="" style="rounded=0;whiteSpace=wrap;html=1;" parent="1" vertex="1">
          <mxGeometry x="664" y="375" width="120" height="60" as="geometry" />
        </mxCell>
        <mxCell id="QGLfhy5vxlVQSryEOP55-28" value="" style="aspect=fixed;sketch=0;html=1;dashed=0;whitespace=wrap;verticalLabelPosition=bottom;verticalAlign=top;fillColor=#2875E2;strokeColor=#ffffff;points=[[0.005,0.63,0],[0.1,0.2,0],[0.9,0.2,0],[0.5,0,0],[0.995,0.63,0],[0.72,0.99,0],[0.5,1,0],[0.28,0.99,0]];shape=mxgraph.kubernetes.icon2;kubernetesLabel=1;prIcon=pod" parent="1" vertex="1">
          <mxGeometry x="490" y="140" width="28" height="26.88" as="geometry" />
        </mxCell>
        <mxCell id="QGLfhy5vxlVQSryEOP55-29" value="" style="aspect=fixed;sketch=0;html=1;dashed=0;whitespace=wrap;verticalLabelPosition=bottom;verticalAlign=top;fillColor=#2875E2;strokeColor=#ffffff;points=[[0.005,0.63,0],[0.1,0.2,0],[0.9,0.2,0],[0.5,0,0],[0.995,0.63,0],[0.72,0.99,0],[0.5,1,0],[0.28,0.99,0]];shape=mxgraph.kubernetes.icon2;kubernetesLabel=1;prIcon=pod" parent="1" vertex="1">
          <mxGeometry x="490" y="260" width="28" height="26.88" as="geometry" />
        </mxCell>
        <mxCell id="QGLfhy5vxlVQSryEOP55-30" value="" style="aspect=fixed;sketch=0;html=1;dashed=0;whitespace=wrap;verticalLabelPosition=bottom;verticalAlign=top;fillColor=#2875E2;strokeColor=#ffffff;points=[[0.005,0.63,0],[0.1,0.2,0],[0.9,0.2,0],[0.5,0,0],[0.995,0.63,0],[0.72,0.99,0],[0.5,1,0],[0.28,0.99,0]];shape=mxgraph.kubernetes.icon2;kubernetesLabel=1;prIcon=pod" parent="1" vertex="1">
          <mxGeometry x="490" y="370" width="28" height="26.88" as="geometry" />
        </mxCell>
        <mxCell id="QGLfhy5vxlVQSryEOP55-31" value="" style="aspect=fixed;sketch=0;html=1;dashed=0;whitespace=wrap;verticalLabelPosition=bottom;verticalAlign=top;fillColor=#2875E2;strokeColor=#ffffff;points=[[0.005,0.63,0],[0.1,0.2,0],[0.9,0.2,0],[0.5,0,0],[0.995,0.63,0],[0.72,0.99,0],[0.5,1,0],[0.28,0.99,0]];shape=mxgraph.kubernetes.icon2;kubernetesLabel=1;prIcon=pod" parent="1" vertex="1">
          <mxGeometry x="756" y="145" width="28" height="26.88" as="geometry" />
        </mxCell>
        <mxCell id="QGLfhy5vxlVQSryEOP55-32" value="" style="aspect=fixed;sketch=0;html=1;dashed=0;whitespace=wrap;verticalLabelPosition=bottom;verticalAlign=top;fillColor=#2875E2;strokeColor=#ffffff;points=[[0.005,0.63,0],[0.1,0.2,0],[0.9,0.2,0],[0.5,0,0],[0.995,0.63,0],[0.72,0.99,0],[0.5,1,0],[0.28,0.99,0]];shape=mxgraph.kubernetes.icon2;kubernetesLabel=1;prIcon=pod" parent="1" vertex="1">
          <mxGeometry x="756" y="265" width="28" height="26.88" as="geometry" />
        </mxCell>
        <mxCell id="QGLfhy5vxlVQSryEOP55-33" value="" style="aspect=fixed;sketch=0;html=1;dashed=0;whitespace=wrap;verticalLabelPosition=bottom;verticalAlign=top;fillColor=#2875E2;strokeColor=#ffffff;points=[[0.005,0.63,0],[0.1,0.2,0],[0.9,0.2,0],[0.5,0,0],[0.995,0.63,0],[0.72,0.99,0],[0.5,1,0],[0.28,0.99,0]];shape=mxgraph.kubernetes.icon2;kubernetesLabel=1;prIcon=pod" parent="1" vertex="1">
          <mxGeometry x="756" y="375" width="28" height="26.88" as="geometry" />
        </mxCell>
        <mxCell id="QGLfhy5vxlVQSryEOP55-36" value="" style="image;sketch=0;aspect=fixed;html=1;points=[];align=center;fontSize=12;image=img/lib/mscae/Docker.svg;" parent="1" vertex="1">
          <mxGeometry x="400.1" y="142.08" width="39.9" height="32.72" as="geometry" />
        </mxCell>
        <mxCell id="QGLfhy5vxlVQSryEOP55-37" value="" style="image;sketch=0;aspect=fixed;html=1;points=[];align=center;fontSize=12;image=img/lib/mscae/Docker.svg;" parent="1" vertex="1">
          <mxGeometry x="400.1" y="262.08" width="39.9" height="32.72" as="geometry" />
        </mxCell>
        <mxCell id="QGLfhy5vxlVQSryEOP55-38" value="" style="image;sketch=0;aspect=fixed;html=1;points=[];align=center;fontSize=12;image=img/lib/mscae/Docker.svg;" parent="1" vertex="1">
          <mxGeometry x="398" y="369.99999999999994" width="39.9" height="32.72" as="geometry" />
        </mxCell>
        <mxCell id="QGLfhy5vxlVQSryEOP55-39" value="" style="image;sketch=0;aspect=fixed;html=1;points=[];align=center;fontSize=12;image=img/lib/mscae/Docker.svg;" parent="1" vertex="1">
          <mxGeometry x="664" y="145" width="39.9" height="32.72" as="geometry" />
        </mxCell>
        <mxCell id="QGLfhy5vxlVQSryEOP55-40" value="" style="image;sketch=0;aspect=fixed;html=1;points=[];align=center;fontSize=12;image=img/lib/mscae/Docker.svg;" parent="1" vertex="1">
          <mxGeometry x="664" y="265" width="39.9" height="32.72" as="geometry" />
        </mxCell>
        <mxCell id="QGLfhy5vxlVQSryEOP55-41" value="" style="image;sketch=0;aspect=fixed;html=1;points=[];align=center;fontSize=12;image=img/lib/mscae/Docker.svg;" parent="1" vertex="1">
          <mxGeometry x="664" y="375" width="39.9" height="32.72" as="geometry" />
        </mxCell>
        <mxCell id="QGLfhy5vxlVQSryEOP55-42" value="Frontend pod 1" style="text;html=1;align=center;verticalAlign=middle;whiteSpace=wrap;rounded=0;" parent="1" vertex="1">
          <mxGeometry x="428" y="171.88" width="90" height="30" as="geometry" />
        </mxCell>
        <mxCell id="QGLfhy5vxlVQSryEOP55-43" value="Frontend pod 2" style="text;html=1;align=center;verticalAlign=middle;whiteSpace=wrap;rounded=0;" parent="1" vertex="1">
          <mxGeometry x="428" y="290" width="90" height="30" as="geometry" />
        </mxCell>
        <mxCell id="QGLfhy5vxlVQSryEOP55-44" value="Backend pod 1" style="text;html=1;align=center;verticalAlign=middle;whiteSpace=wrap;rounded=0;" parent="1" vertex="1">
          <mxGeometry x="428" y="400" width="90" height="30" as="geometry" />
        </mxCell>
        <mxCell id="QGLfhy5vxlVQSryEOP55-45" value="Frontend pod 3" style="text;html=1;align=center;verticalAlign=middle;whiteSpace=wrap;rounded=0;" parent="1" vertex="1">
          <mxGeometry x="694" y="174.8" width="90" height="30" as="geometry" />
        </mxCell>
        <mxCell id="QGLfhy5vxlVQSryEOP55-46" value="Backend pod 2" style="text;html=1;align=center;verticalAlign=middle;whiteSpace=wrap;rounded=0;" parent="1" vertex="1">
          <mxGeometry x="694" y="295" width="90" height="30" as="geometry" />
        </mxCell>
        <mxCell id="QGLfhy5vxlVQSryEOP55-47" value="Backend pod 3" style="text;html=1;align=center;verticalAlign=middle;whiteSpace=wrap;rounded=0;" parent="1" vertex="1">
          <mxGeometry x="694" y="405" width="90" height="30" as="geometry" />
        </mxCell>
        <mxCell id="QGLfhy5vxlVQSryEOP55-48" style="edgeStyle=orthogonalEdgeStyle;rounded=0;orthogonalLoop=1;jettySize=auto;html=1;entryX=0.995;entryY=0.63;entryDx=0;entryDy=0;entryPerimeter=0;" parent="1" source="QGLfhy5vxlVQSryEOP55-13" target="QGLfhy5vxlVQSryEOP55-11" edge="1">
          <mxGeometry relative="1" as="geometry">
            <Array as="points">
              <mxPoint x="493" y="480" />
              <mxPoint x="250" y="480" />
              <mxPoint x="250" y="380" />
            </Array>
          </mxGeometry>
        </mxCell>
        <mxCell id="QGLfhy5vxlVQSryEOP55-54" style="edgeStyle=orthogonalEdgeStyle;rounded=0;orthogonalLoop=1;jettySize=auto;html=1;exitX=0.25;exitY=0;exitDx=0;exitDy=0;entryX=0;entryY=0.5;entryDx=0;entryDy=0;" parent="1" source="QGLfhy5vxlVQSryEOP55-50" target="QGLfhy5vxlVQSryEOP55-22" edge="1">
          <mxGeometry relative="1" as="geometry" />
        </mxCell>
        <mxCell id="QGLfhy5vxlVQSryEOP55-50" value="Network Rules, IP Tables etc" style="rounded=0;whiteSpace=wrap;html=1;rotation=90;" parent="1" vertex="1">
          <mxGeometry x="207.4" y="265" width="282.6" height="34.8" as="geometry" />
        </mxCell>
        <mxCell id="QGLfhy5vxlVQSryEOP55-60" style="edgeStyle=orthogonalEdgeStyle;rounded=0;orthogonalLoop=1;jettySize=auto;html=1;exitX=0.5;exitY=0;exitDx=0;exitDy=0;" parent="1" source="QGLfhy5vxlVQSryEOP55-51" target="QGLfhy5vxlVQSryEOP55-40" edge="1">
          <mxGeometry relative="1" as="geometry" />
        </mxCell>
        <mxCell id="QGLfhy5vxlVQSryEOP55-61" style="edgeStyle=orthogonalEdgeStyle;rounded=0;orthogonalLoop=1;jettySize=auto;html=1;exitX=0.75;exitY=0;exitDx=0;exitDy=0;entryX=0;entryY=0.5;entryDx=0;entryDy=0;" parent="1" source="QGLfhy5vxlVQSryEOP55-51" target="QGLfhy5vxlVQSryEOP55-27" edge="1">
          <mxGeometry relative="1" as="geometry">
            <Array as="points">
              <mxPoint x="650" y="353" />
              <mxPoint x="650" y="405" />
            </Array>
          </mxGeometry>
        </mxCell>
        <mxCell id="QGLfhy5vxlVQSryEOP55-51" value="Network Rules, IP Tables etc" style="rounded=0;whiteSpace=wrap;html=1;rotation=90;" parent="1" vertex="1">
          <mxGeometry x="480" y="265" width="282.6" height="34.8" as="geometry" />
        </mxCell>
        <mxCell id="QGLfhy5vxlVQSryEOP55-56" style="edgeStyle=orthogonalEdgeStyle;rounded=0;orthogonalLoop=1;jettySize=auto;html=1;exitX=0.5;exitY=0;exitDx=0;exitDy=0;entryX=-0.003;entryY=0.616;entryDx=0;entryDy=0;entryPerimeter=0;" parent="1" source="QGLfhy5vxlVQSryEOP55-50" target="QGLfhy5vxlVQSryEOP55-37" edge="1">
          <mxGeometry relative="1" as="geometry" />
        </mxCell>
        <mxCell id="QGLfhy5vxlVQSryEOP55-57" style="edgeStyle=orthogonalEdgeStyle;rounded=0;orthogonalLoop=1;jettySize=auto;html=1;exitX=0.75;exitY=0;exitDx=0;exitDy=0;entryX=0.006;entryY=0.604;entryDx=0;entryDy=0;entryPerimeter=0;" parent="1" source="QGLfhy5vxlVQSryEOP55-50" target="QGLfhy5vxlVQSryEOP55-38" edge="1">
          <mxGeometry relative="1" as="geometry" />
        </mxCell>
        <mxCell id="QGLfhy5vxlVQSryEOP55-59" style="edgeStyle=orthogonalEdgeStyle;rounded=0;orthogonalLoop=1;jettySize=auto;html=1;exitX=0.25;exitY=0;exitDx=0;exitDy=0;entryX=0.075;entryY=0.947;entryDx=0;entryDy=0;entryPerimeter=0;" parent="1" source="QGLfhy5vxlVQSryEOP55-51" target="QGLfhy5vxlVQSryEOP55-39" edge="1">
          <mxGeometry relative="1" as="geometry">
            <Array as="points">
              <mxPoint x="650" y="212" />
              <mxPoint x="650" y="176" />
            </Array>
          </mxGeometry>
        </mxCell>
        <mxCell id="oo58XqtZ_VvP2QP6S_Y6-2" style="edgeStyle=orthogonalEdgeStyle;rounded=0;orthogonalLoop=1;jettySize=auto;html=1;exitX=0.005;exitY=0.63;exitDx=0;exitDy=0;exitPerimeter=0;entryX=0.995;entryY=0.63;entryDx=0;entryDy=0;entryPerimeter=0;" edge="1" parent="1" source="QGLfhy5vxlVQSryEOP55-14" target="QGLfhy5vxlVQSryEOP55-11">
          <mxGeometry relative="1" as="geometry">
            <Array as="points">
              <mxPoint x="330" y="556" />
              <mxPoint x="330" y="480" />
              <mxPoint x="250" y="480" />
              <mxPoint x="250" y="380" />
            </Array>
          </mxGeometry>
        </mxCell>
        <mxCell id="oo58XqtZ_VvP2QP6S_Y6-4" style="edgeStyle=orthogonalEdgeStyle;rounded=0;orthogonalLoop=1;jettySize=auto;html=1;exitX=0.005;exitY=0.63;exitDx=0;exitDy=0;exitPerimeter=0;entryX=0.995;entryY=0.63;entryDx=0;entryDy=0;entryPerimeter=0;" edge="1" parent="1" source="QGLfhy5vxlVQSryEOP55-20" target="QGLfhy5vxlVQSryEOP55-11">
          <mxGeometry relative="1" as="geometry">
            <Array as="points">
              <mxPoint x="600" y="556" />
              <mxPoint x="600" y="480" />
              <mxPoint x="250" y="480" />
              <mxPoint x="250" y="380" />
            </Array>
          </mxGeometry>
        </mxCell>
        <mxCell id="oo58XqtZ_VvP2QP6S_Y6-5" style="edgeStyle=orthogonalEdgeStyle;rounded=0;orthogonalLoop=1;jettySize=auto;html=1;exitX=0.995;exitY=0.63;exitDx=0;exitDy=0;exitPerimeter=0;entryX=0.5;entryY=0;entryDx=0;entryDy=0;entryPerimeter=0;startArrow=classic;startFill=1;" edge="1" parent="1" source="QGLfhy5vxlVQSryEOP55-12" target="QGLfhy5vxlVQSryEOP55-11">
          <mxGeometry relative="1" as="geometry" />
        </mxCell>
        <mxCell id="oo58XqtZ_VvP2QP6S_Y6-6" style="edgeStyle=orthogonalEdgeStyle;rounded=0;orthogonalLoop=1;jettySize=auto;html=1;exitX=0.5;exitY=0;exitDx=0;exitDy=0;exitPerimeter=0;entryX=0.005;entryY=0.63;entryDx=0;entryDy=0;entryPerimeter=0;" edge="1" parent="1" source="QGLfhy5vxlVQSryEOP55-8" target="QGLfhy5vxlVQSryEOP55-11">
          <mxGeometry relative="1" as="geometry" />
        </mxCell>
        <mxCell id="oo58XqtZ_VvP2QP6S_Y6-9" style="edgeStyle=orthogonalEdgeStyle;rounded=0;orthogonalLoop=1;jettySize=auto;html=1;entryX=0.9;entryY=0.2;entryDx=0;entryDy=0;entryPerimeter=0;" edge="1" parent="1" source="QGLfhy5vxlVQSryEOP55-10" target="QGLfhy5vxlVQSryEOP55-11">
          <mxGeometry relative="1" as="geometry">
            <Array as="points">
              <mxPoint x="193" y="284" />
              <mxPoint x="193" y="284" />
              <mxPoint x="193" y="360" />
            </Array>
          </mxGeometry>
        </mxCell>
      </root>
    </mxGraphModel>
  </diagram>
</mxfile>
